<?xml version="1.0" standalone="no"?>
<!DOCTYPE svg PUBLIC "-//W3C//DTD SVG 20010904//EN"
 "http://www.w3.org/TR/2001/REC-SVG-20010904/DTD/svg10.dtd">
<svg version="1.0" xmlns="http://www.w3.org/2000/svg"
 width="585.000000pt" height="585.000000pt" viewBox="0 0 585.000000 585.000000"
 preserveAspectRatio="xMidYMid meet">
<metadata>
Created by potrace 1.11, written by Peter Selinger 2001-2013
</metadata>
<g transform="translate(0.000000,585.000000) scale(0.100000,-0.100000)"
fill="#000000" stroke="none">
<path d="M2615 5750 c-821 -101 -1532 -516 -2006 -1170 -273 -376 -438 -784
-514 -1266 -22 -139 -31 -498 -16 -663 50 -567 265 -1097 625 -1544 78 -98
294 -319 348 -359 l28 -19 -1 33 c0 18 -6 58 -12 90 -11 52 -16 59 -72 100
-72 54 -139 125 -190 201 -45 67 -42 88 12 85 37 -1 37 -1 6 -5 -36 -5 -40
-17 -20 -57 26 -49 152 -181 212 -222 66 -45 66 -47 81 -192 6 -54 11 -65 35
-83 l29 -20 0 55 c0 30 4 57 9 61 5 3 12 19 16 35 7 31 27 38 55 20 12 -8 11
-10 -8 -10 -28 0 -43 -33 -52 -114 l-6 -59 71 -52 c82 -61 256 -170 334 -210
l54 -27 -7 77 c-4 42 -11 87 -16 101 -6 14 -10 60 -10 103 0 55 -4 82 -14 90
-18 15 -20 11 -36 -68 -21 -101 -76 -136 -105 -67 -20 47 -32 176 -16 176 6 0
11 -17 11 -40 0 -59 20 -141 36 -147 8 -3 21 0 28 7 17 13 38 90 39 138 1 36
15 41 52 16 23 -15 25 -22 25 -101 0 -46 4 -92 10 -102 5 -10 12 -59 16 -108
7 -91 7 -91 40 -107 l34 -16 0 33 c-1 17 -7 77 -15 132 -41 285 -33 305 109
305 29 0 56 4 62 10 5 5 22 6 39 2 24 -7 27 -10 14 -18 -21 -12 -39 -170 -39
-337 0 -75 -4 -127 -11 -134 -6 -6 -9 -21 -7 -33 2 -18 20 -29 98 -57 121 -43
396 -117 413 -110 8 3 20 26 27 51 7 25 16 46 20 46 5 0 2 -21 -6 -47 -8 -25
-14 -49 -14 -53 0 -10 116 -27 274 -41 131 -12 514 -7 548 6 16 6 15 10 -8 38
-14 17 -33 32 -41 33 -21 3 -63 33 -63 44 0 15 9 12 37 -10 14 -11 32 -20 39
-20 7 0 28 -18 45 -40 21 -25 41 -40 55 -40 47 0 295 51 412 84 244 71 502
180 502 214 0 10 -9 45 -20 78 -12 32 -19 68 -18 79 2 11 16 -19 32 -67 16
-49 33 -88 37 -88 15 0 203 112 299 178 517 356 904 869 1100 1463 44 132 102
384 122 529 17 125 17 625 0 735 -69 438 -188 775 -390 1108 -445 733 -1160
1210 -2028 1353 -114 19 -613 28 -729 14z m490 -94 c61 -16 99 -35 156 -79 35
-26 60 -35 124 -45 350 -53 776 -232 1090 -457 280 -201 548 -489 725 -779
200 -329 332 -718 372 -1093 l13 -115 41 6 c82 11 104 -37 50 -109 -13 -16
-39 -62 -60 -101 -33 -64 -36 -77 -36 -153 0 -57 -5 -92 -17 -114 -9 -18 -19
-45 -23 -62 -5 -24 -11 -30 -33 -30 -19 1 -27 -4 -27 -16 0 -9 -7 -22 -16 -30
-13 -10 -19 -10 -36 0 -19 12 -20 11 -15 -11 4 -12 7 -36 7 -51 0 -39 28 -47
54 -15 12 14 30 28 41 30 13 2 21 14 26 36 10 51 21 52 13 2 -17 -120 -77
-355 -94 -374 -5 -4 -13 -7 -18 -5 -7 3 -4 24 8 56 15 44 16 54 4 64 -11 9
-19 0 -44 -52 -25 -53 -29 -58 -25 -30 19 122 19 143 0 140 -14 -3 -23 -23
-36 -77 -28 -119 -37 -98 -13 31 4 19 1 29 -11 33 -9 4 -18 5 -20 2 -2 -2 -13
-45 -24 -95 -11 -50 -30 -114 -42 -142 -18 -44 -24 -50 -44 -45 -13 3 -26 1
-29 -5 -10 -15 44 -80 72 -87 26 -7 25 -3 11 -62 -15 -60 -26 -72 -34 -36 -33
161 -107 228 -249 229 l-68 0 -56 150 c-48 130 -55 160 -56 226 -1 68 -3 75
-18 66 -31 -20 -48 8 -49 82 l-1 66 -12 -40 c-15 -50 -47 -56 -57 -10 -6 26
-29 92 -36 104 -4 6 -73 -73 -77 -89 -2 -8 -7 -32 -11 -53 -5 -34 -9 -38 -33
-35 -25 3 -27 7 -33 58 -3 30 -6 45 -7 33 -1 -12 -6 -25 -12 -28 -5 -3 -10
-22 -10 -41 0 -49 -16 -74 -46 -74 -23 0 -25 -3 -22 -42 3 -38 6 -43 28 -43
21 0 26 5 28 32 2 18 5 33 6 33 2 0 23 -9 47 -19 24 -11 75 -25 112 -32 78
-14 80 -17 116 -134 24 -78 65 -319 64 -379 -1 -48 -8 -54 -64 -62 l-45 -6
-17 76 c-9 42 -17 111 -17 154 l0 77 -58 51 c-74 66 -86 72 -173 84 -65 9 -76
8 -116 -11 -25 -12 -58 -40 -75 -63 -28 -39 -30 -44 -23 -109 l6 -67 -26 12
c-21 9 -25 16 -20 39 4 18 0 32 -12 45 -37 36 -9 185 37 197 10 3 27 21 36 41
16 32 16 37 2 53 -8 10 -18 38 -21 63 -4 25 -9 60 -13 78 -6 31 -5 32 26 32
17 0 45 8 61 17 29 17 31 17 70 -4 l40 -22 -3 47 c-3 41 -7 49 -42 73 -37 25
-40 25 -57 8 -10 -10 -41 -20 -76 -25 -32 -3 -61 -12 -65 -18 -4 -6 -8 -32 -8
-57 0 -53 -21 -80 -48 -62 -11 6 -19 29 -22 64 -6 53 -6 54 -18 25 -7 -16 -11
-52 -8 -80 4 -59 -6 -86 -34 -86 -16 0 -20 -7 -20 -38 0 -21 -11 -105 -25
-188 -14 -82 -25 -158 -25 -169 0 -12 -8 -36 -18 -55 -16 -34 -16 -36 1 -53
17 -17 15 -43 -4 -32 -13 8 -12 3 10 -45 14 -31 17 -50 10 -69 -4 -14 -8 -33
-7 -41 1 -8 0 -30 0 -47 -2 -30 -4 -32 -27 -23 -16 6 -25 6 -25 0 0 -6 -6 -10
-14 -10 -8 0 -16 -6 -19 -14 -7 -17 -29 -15 -51 3 -14 11 -21 12 -40 2 -29
-16 -76 5 -122 55 -18 19 -37 34 -43 34 -14 0 -14 25 0 52 11 20 12 21 24 4
18 -24 49 -7 63 33 12 34 47 58 55 38 3 -6 6 3 6 21 1 17 -2 32 -6 32 -14 0
-73 -45 -73 -56 0 -7 -11 -19 -24 -27 -24 -16 -24 -15 8 57 18 44 36 72 43 69
7 -3 21 16 33 44 12 26 25 57 30 68 10 21 29 141 36 230 7 75 13 95 29 95 9 0
18 13 22 30 3 17 14 35 24 41 12 6 19 21 19 38 0 16 10 41 22 56 l22 28 23
-29 23 -29 0 37 c0 20 -10 53 -21 73 -20 34 -22 35 -40 19 -11 -9 -19 -30 -19
-45 0 -38 -9 -59 -26 -59 -8 0 -14 -10 -14 -23 0 -13 -9 -32 -20 -42 -24 -22
-45 -8 -55 35 -5 21 -11 27 -25 23 -12 -3 -22 1 -26 11 -3 9 -16 16 -28 16
-32 0 -76 92 -101 213 -3 15 -10 25 -16 22 -16 -11 -38 14 -45 51 -8 43 -20
51 -35 22 -8 -15 -10 -56 -6 -134 5 -91 3 -114 -8 -124 -8 -7 -15 -25 -15 -41
0 -31 -24 -61 -44 -53 -9 4 -16 -12 -22 -58 -8 -58 -11 -63 -34 -63 -21 0 -26
6 -32 40 -3 22 -4 56 -1 75 4 30 0 39 -27 64 l-32 28 4 109 c3 93 2 105 -10
84 -8 -16 -21 -25 -37 -25 -20 0 -26 7 -35 43 -6 23 -17 55 -25 71 -8 18 -10
38 -5 50 4 12 4 30 -1 41 -12 32 -10 92 4 104 9 7 64 9 173 6 176 -6 214 -2
214 23 0 13 -2 14 -9 4 -7 -11 -9 -10 -14 3 -4 9 4 32 19 54 17 26 24 50 23
72 -2 19 -1 50 0 69 l3 35 8 -34 c4 -18 4 -76 0 -129 -7 -84 -6 -97 8 -109 9
-7 24 -10 32 -8 75 22 131 8 145 -36 l7 -22 12 22 c7 13 11 57 10 109 -3 108
4 152 21 146 12 -5 45 20 45 35 0 4 -18 35 -41 70 -73 112 -115 280 -104 407
7 68 10 76 33 85 13 5 26 8 27 7 2 -2 14 -26 28 -54 31 -61 43 -127 57 -299 6
-72 19 -178 30 -235 11 -58 20 -117 20 -132 0 -20 4 -26 15 -22 10 4 15 21 15
53 0 86 10 119 36 124 28 5 36 -14 32 -77 -3 -33 1 -42 20 -52 26 -13 47 -47
57 -94 11 -48 39 -36 45 20 5 47 24 89 35 78 4 -3 12 -34 18 -67 14 -73 31
-74 35 -3 3 46 7 55 38 78 19 15 46 49 61 76 30 56 52 60 65 11 5 -18 20 -50
34 -70 15 -22 25 -50 24 -68 -3 -56 -1 -65 20 -65 16 0 20 7 20 34 0 26 7 40
29 58 66 53 62 95 -19 223 -47 74 -60 105 -75 178 -6 28 -6 28 -72 25 -46 -2
-68 -7 -73 -18 -4 -8 -25 -69 -46 -135 -21 -66 -45 -137 -55 -159 l-17 -38 -7
71 c-4 39 -4 102 0 139 8 79 -7 148 -33 156 -20 6 -91 0 -100 -9 -3 -3 -8 -36
-10 -73 -4 -68 -14 -92 -38 -92 -10 0 -14 21 -16 78 l-3 77 -37 3 c-42 4 -38
-4 -58 119 -6 40 -9 77 -5 83 4 6 7 37 9 70 1 46 -1 60 -12 60 -11 0 -13 8 -9
29 7 32 -1 37 -88 56 -16 4 -38 14 -47 22 -10 8 -23 13 -30 11 -7 -3 -23 -2
-36 3 -22 8 -22 10 -7 39 20 39 9 38 -24 -1 l-26 -31 0 25 c0 14 4 23 9 19 5
-3 7 2 3 11 -8 22 2 49 16 40 6 -3 7 -1 3 6 -10 16 2 63 14 56 6 -3 10 1 10 9
0 26 -15 18 -32 -16 -14 -32 -15 -30 -11 52 5 98 9 114 24 105 8 -5 8 -10 0
-18 -13 -13 -15 -30 -2 -22 17 10 71 131 72 161 0 16 4 38 8 49 5 11 5 27 0
35 -10 19 -46 117 -55 150 -3 14 -26 67 -50 119 -49 104 -49 105 -31 95 6 -4
5 1 -5 12 -9 10 -21 39 -28 64 -18 67 -80 180 -122 222 -39 39 -52 62 -21 37
14 -12 14 -10 -1 14 -16 23 -16 30 -5 45 7 9 10 14 5 10 -4 -4 -18 3 -30 16
-11 12 -16 15 -10 6 24 -34 24 -43 0 -17 -21 23 -24 32 -16 48 13 24 -4 57
-61 119 -23 25 -35 36 -28 26 13 -18 12 -19 -21 -12 -105 21 -115 20 -153 -14
-37 -32 -37 -32 -37 -8 0 13 5 29 12 36 6 6 9 15 5 18 -9 9 -37 -15 -37 -32 0
-8 -7 -14 -15 -14 -8 0 -18 0 -22 0 -4 0 -8 6 -9 13 0 6 -2 20 -2 31 -2 14 -5
16 -15 7 -8 -6 -16 -8 -19 -5 -10 10 -80 -68 -95 -105 -39 -98 -79 -171 -94
-171 -23 0 -30 -11 -17 -27 8 -10 8 -12 -3 -8 -19 7 -41 -49 -48 -120 -1 -5
-5 -4 -10 4 -6 10 -12 3 -21 -25 -7 -22 -24 -51 -38 -66 -27 -29 -24 -51 3
-28 13 11 14 10 9 -4 -4 -10 -17 -21 -29 -26 -17 -6 -26 -22 -35 -59 -6 -28
-10 -56 -7 -63 3 -8 6 -6 6 5 1 10 5 16 9 13 5 -3 7 -40 6 -83 -4 -90 10 -212
31 -274 8 -24 12 -32 10 -16 -3 15 -1 27 4 27 5 0 13 -20 17 -45 3 -25 15 -56
25 -68 19 -22 19 -22 5 13 -8 19 -16 55 -19 80 -2 25 -2 37 0 27 2 -9 9 -15
14 -12 5 3 6 -1 3 -9 -5 -13 21 -76 32 -76 2 0 -2 13 -11 30 -22 42 -18 50 6
12 12 -18 23 -31 25 -29 2 1 -8 37 -22 79 l-25 75 26 28 c18 21 22 32 15 39
-8 8 -16 4 -29 -13 l-19 -24 -10 50 c-6 27 -12 112 -13 188 -1 125 1 140 17
152 11 8 19 17 19 21 1 4 9 28 19 54 10 26 16 59 14 73 -4 19 -2 25 8 21 8 -3
20 6 29 24 8 16 19 31 24 34 5 4 42 -1 83 -10 70 -15 113 -23 151 -27 33 -3
17 -157 -19 -171 -9 -3 -14 -20 -14 -45 0 -55 -16 -93 -37 -89 -30 5 -66 -27
-58 -51 3 -12 11 -21 16 -21 20 0 7 -29 -24 -57 -19 -16 -37 -34 -40 -40 -10
-16 44 -73 69 -73 19 0 34 -19 48 -62 4 -12 -3 -18 -27 -23 -50 -10 -96 -28
-92 -35 2 -4 -15 -5 -40 -3 -36 4 -45 1 -54 -15 -8 -15 -7 -23 4 -32 9 -8 13
-21 10 -34 -4 -13 -3 -16 2 -9 7 9 14 9 33 -2 14 -8 33 -17 42 -21 9 -3 24
-16 32 -28 7 -12 32 -28 55 -35 23 -6 41 -18 41 -25 0 -8 14 -19 30 -25 l31
-10 -6 -68 c-4 -37 -10 -99 -15 -138 -9 -85 -7 -154 7 -180 18 -33 16 -178 -3
-201 -15 -19 -16 -19 -10 1 5 18 4 18 -10 -2 -18 -25 -42 -29 -74 -13 -11 6
-29 15 -40 20 -45 22 -66 36 -92 59 l-28 24 31 28 c36 32 91 116 94 144 1 11
3 23 4 27 0 3 13 20 27 37 14 17 23 31 19 31 -3 0 3 12 14 26 25 32 28 69 6
60 -20 -7 -19 13 2 36 30 33 1 42 -39 11 -29 -23 -35 -34 -35 -66 0 -21 4 -40
9 -43 5 -3 -10 -28 -32 -55 -23 -26 -39 -53 -36 -58 3 -5 -1 -11 -9 -15 -8 -3
-15 -17 -15 -31 0 -14 -4 -25 -10 -25 -5 0 -10 -4 -10 -10 0 -5 -9 -24 -20
-42 l-20 -33 1 90 c2 90 -8 134 -36 161 -20 20 -19 46 3 75 30 41 44 79 29 83
-70 22 -99 9 -112 -49 -5 -26 -4 -25 14 10 l19 40 1 -30 c0 -38 -32 -118 -44
-108 -4 4 -5 0 -2 -9 4 -12 -4 -23 -27 -37 -37 -23 -46 -25 -46 -11 0 5 12 16
28 24 36 20 22 20 -28 0 -22 -9 -37 -20 -34 -25 3 -5 -4 -9 -15 -9 -25 0 -18
1 -87 -15 -30 -7 -65 -11 -77 -9 -12 2 -16 1 -8 -2 11 -5 11 -8 0 -15 -9 -6
-10 -12 -4 -16 26 -20 105 -114 105 -125 0 -7 -10 2 -22 21 -14 21 -24 29 -26
21 -3 -7 4 -20 14 -27 18 -13 18 -15 2 -24 -10 -6 -18 -16 -18 -23 0 -8 -6
-16 -13 -19 -17 -6 -58 -90 -60 -124 -4 -50 26 -37 83 36 35 44 58 65 62 58
11 -17 10 -65 -2 -72 -5 -3 -10 -27 -10 -53 0 -28 -9 -66 -24 -97 -33 -70 -49
-141 -36 -165 5 -10 10 -38 10 -63 0 -24 7 -68 16 -97 15 -49 15 -55 0 -66 -9
-6 -16 -15 -16 -20 0 -5 -9 -17 -20 -27 -14 -12 -19 -24 -14 -41 4 -15 0 -28
-11 -37 -40 -34 -45 -42 -45 -69 0 -65 50 -34 90 56 21 49 43 68 36 32 -25
-131 -28 -139 -64 -154 -31 -13 -37 -13 -52 1 -20 18 -56 9 -79 -19 -12 -15
-10 -21 21 -49 37 -34 72 -120 87 -218 8 -47 6 -56 -10 -72 -10 -10 -19 -23
-19 -30 0 -8 4 -7 11 3 7 11 8 -1 3 -40 -7 -59 -19 -90 -34 -90 -6 0 -9 -3 -9
-8 3 -18 -2 -33 -9 -28 -4 2 -8 -3 -8 -12 -1 -9 -3 -24 -5 -32 -3 -10 3 -14
16 -13 18 1 18 0 -4 -18 -13 -11 -21 -23 -17 -27 10 -9 33 22 57 76 10 23 21
42 25 42 4 0 3 -91 -1 -202 -5 -112 -9 -225 -10 -253 -3 -60 -14 -107 -29
-117 -8 -5 -8 -10 1 -19 8 -8 17 -5 34 15 12 14 27 23 33 19 6 -3 5 0 -1 8
-18 18 -16 30 3 22 14 -5 15 -3 5 15 -6 11 -11 27 -11 34 0 7 9 -6 20 -30 19
-41 18 -78 -2 -66 -5 3 -4 -3 3 -14 10 -17 10 -24 -4 -46 -34 -51 -14 -77 21
-29 17 23 22 25 36 14 20 -17 12 -31 -13 -24 -13 3 -25 -4 -37 -22 -16 -25
-17 -28 -2 -39 9 -7 20 -30 23 -51 5 -28 4 -37 -3 -30 -6 6 -12 21 -15 35 -4
25 -4 25 -12 3 -7 -23 -25 -32 -25 -12 0 6 5 19 11 31 9 16 7 24 -10 39 -12
11 -21 28 -21 39 0 25 -18 36 -26 16 -9 -23 -19 -20 -32 9 -10 23 -9 25 11 26
18 1 19 2 4 6 -12 3 -17 11 -14 22 2 10 0 26 -5 35 -14 26 -38 -2 -27 -32 14
-36 11 -78 -7 -92 -8 -8 -14 -9 -13 -4 3 20 -2 35 -10 29 -6 -3 -8 6 -5 22 3
15 11 31 17 35 9 6 9 8 -1 8 -10 0 -13 16 -9 66 3 52 8 70 24 83 11 9 25 31
31 49 10 30 10 35 -8 39 -19 5 -18 7 5 54 30 58 31 69 6 98 l-20 23 -21 -42
c-11 -23 -18 -49 -15 -59 7 -23 -10 -69 -35 -96 -12 -13 -20 -38 -22 -74 -2
-42 -7 -55 -20 -57 -29 -4 -88 -55 -88 -76 0 -17 -3 -18 -15 -8 -12 10 -15 10
-15 -4 0 -9 -1 -16 -2 -16 -2 1 -24 6 -49 13 l-46 12 14 35 13 35 -6 -33 c-5
-27 -3 -32 14 -32 11 0 27 -3 36 -6 12 -5 16 0 16 21 0 39 18 65 56 81 l34 14
0 80 c0 44 -4 110 -10 147 -20 137 -25 209 -20 273 5 57 6 49 13 -70 4 -74 12
-162 17 -196 6 -34 10 -103 11 -155 1 -66 4 -88 11 -76 6 12 3 96 -11 255 -29
332 -28 492 4 617 14 54 24 103 22 108 -2 6 -11 -20 -21 -57 -22 -82 -33 -81
-12 0 8 33 17 85 21 117 7 58 6 59 -17 52 -60 -19 -104 -93 -115 -197 -3 -36
-12 -66 -19 -71 -26 -15 -7 -116 21 -117 37 -1 66 -197 35 -235 -16 -19 -73
-49 -112 -59 -25 -6 -29 -2 -43 31 -27 64 -58 103 -83 103 -31 0 -20 16 28 40
30 15 42 29 49 58 6 20 18 47 26 59 9 12 18 51 22 87 5 55 3 69 -17 100 -12
20 -42 48 -67 62 -40 24 -51 26 -113 21 -81 -7 -127 -29 -196 -95 l-50 -48 -2
-85 c-1 -46 -9 -114 -18 -151 l-16 -67 -31 6 c-62 12 -77 21 -78 50 -1 16 -1
32 0 36 1 5 8 52 17 105 27 174 35 214 60 286 13 39 31 76 40 83 8 6 38 14 66
18 81 11 186 64 172 86 -7 12 -42 11 -81 -3 -44 -16 -51 -5 -25 41 12 21 22
45 22 53 0 8 15 39 33 70 41 67 51 98 31 98 -8 0 -14 5 -14 10 0 20 -23 9 -56
-25 -18 -19 -41 -35 -51 -35 -11 0 -30 -10 -43 -22 -13 -12 -32 -22 -43 -23
-15 0 -35 -30 -82 -123 -34 -67 -65 -137 -69 -155 -3 -18 -30 -97 -58 -177
l-53 -145 -65 3 c-56 3 -72 0 -120 -25 -69 -37 -106 -88 -123 -173 -12 -55
-15 -62 -24 -45 -6 11 -13 34 -17 50 -4 17 -9 38 -12 48 -4 13 0 17 18 17 14
0 33 13 51 34 34 44 35 60 2 54 -22 -5 -28 1 -47 41 -11 25 -31 89 -43 141
-16 71 -26 96 -39 98 -16 3 -17 -3 -10 -67 3 -39 4 -71 2 -71 -3 0 -13 34 -23
75 -18 76 -29 95 -46 78 -10 -10 3 -118 18 -160 14 -41 -13 2 -32 50 -12 30
-29 53 -38 55 -22 4 -22 -16 2 -77 13 -34 15 -48 6 -45 -7 3 -15 -1 -18 -9 -6
-16 49 -188 86 -267 15 -30 36 -92 48 -136 l22 -81 -21 -21 c-12 -12 -28 -35
-37 -51 -21 -43 -65 -106 -65 -95 0 5 5 26 11 48 11 41 5 86 -11 86 -11 0 -18
-15 -52 -109 l-22 -65 -12 30 c-7 16 -23 38 -36 50 l-24 21 0 -83 c1 -134 -15
-128 -64 22 -72 221 -101 374 -124 654 -23 282 14 621 100 915 74 254 222 561
372 775 470 669 1223 1091 2027 1136 143 8 150 9 150 22 0 6 4 14 9 19 5 5 6
3 2 -4 -11 -19 6 -15 34 8 21 17 22 20 5 15 -16 -5 -14 -1 8 19 32 28 60 31
132 11z m164 -201 c52 -56 31 -51 -25 6 -27 28 -40 47 -29 41 11 -6 35 -27 54
-47z m-109 35 c11 -7 4 -9 -27 -8 -22 2 -39 6 -36 11 6 10 45 8 63 -3z m179
-233 c6 -8 8 -17 5 -20 -4 -4 1 -18 10 -32 9 -14 14 -25 12 -25 -7 0 -56 73
-56 82 0 13 17 9 29 -5z m52 -104 c13 -16 12 -17 -3 -4 -10 7 -18 15 -18 17 0
8 8 3 21 -13z m-394 -45 c-3 -8 -6 -5 -6 6 -1 11 2 17 5 13 3 -3 4 -12 1 -19z
m-376 -31 c-10 -9 -11 -8 -5 6 3 10 9 15 12 12 3 -3 0 -11 -7 -18z m857 -32
c-3 -3 -9 2 -12 12 -6 14 -5 15 5 6 7 -7 10 -15 7 -18z m-198 -60 c0 -11 -14
7 -31 40 -7 13 -3 12 10 -5 11 -14 21 -29 21 -35z m-210 20 c0 -8 -4 -15 -10
-15 -5 0 -10 7 -10 15 0 8 5 15 10 15 6 0 10 -7 10 -15z m360 -30 c0 -5 -5 -3
-10 5 -5 8 -10 20 -10 25 0 6 5 3 10 -5 5 -8 10 -19 10 -25z m-870 -15 c-7 -4
-10 -12 -7 -17 4 -6 0 -19 -8 -29 -17 -23 -19 -8 -4 34 6 18 15 29 21 26 6 -4
6 -9 -2 -14z m955 -40 c9 -16 13 -30 10 -30 -4 0 1 -7 10 -16 9 -9 14 -23 11
-30 -3 -8 -1 -14 5 -14 6 0 8 -7 5 -16 -3 -8 -2 -13 3 -10 5 3 12 -6 15 -20 8
-29 5 -36 -10 -26 -8 6 -74 170 -74 186 0 14 10 4 25 -24z m-958 -52 c-3 -8
-6 -5 -6 6 -1 11 2 17 5 13 3 -3 4 -12 1 -19z m742 -31 c8 -10 7 -14 -2 -14
-8 0 -14 6 -14 14 0 7 1 13 2 13 2 0 8 -6 14 -13z m-394 -26 c7 -13 -32 -34
-47 -25 -7 5 -5 11 7 21 22 15 32 16 40 4z m416 -38 c13 -16 12 -17 -3 -4 -17
13 -22 21 -14 21 2 0 10 -8 17 -17z m-401 -18 c11 -13 8 -15 -13 -15 -26 0
-42 12 -30 24 11 11 30 7 43 -9z m441 -22 c13 -15 12 -15 -8 -4 -24 12 -29 21
-14 21 5 0 15 -7 22 -17z m53 -8 c25 -19 13 -31 -16 -17 -15 7 -17 11 -8 11
13 1 13 2 0 11 -8 5 -10 10 -5 10 6 -1 19 -7 29 -15z m-857 -62 c-3 -10 -5 -2
-5 17 0 19 2 27 5 18 2 -10 2 -26 0 -35z m904 20 c13 -16 12 -17 -3 -4 -17 13
-22 21 -14 21 2 0 10 -8 17 -17z m-894 -80 c-3 -10 -5 -4 -5 12 0 17 2 24 5
18 2 -7 2 -21 0 -30z m20 -5 c-3 -7 -5 -2 -5 12 0 14 2 19 5 13 2 -7 2 -19 0
-25z m1063 -18 c0 -16 -4 -30 -10 -30 -5 0 -10 14 -10 30 0 17 5 30 10 30 6 0
10 -13 10 -30z m-39 -13 c-10 -9 -11 -8 -5 6 3 10 9 15 12 12 3 -3 0 -11 -7
-18z m20 -39 c24 -29 23 -42 -6 -103 l-23 -50 -2 35 c-1 19 -4 29 -7 23 -2 -7
-9 -13 -15 -13 -6 0 -3 11 6 25 15 23 15 28 1 56 -9 17 -14 33 -11 37 3 3 6 1
6 -5 0 -6 8 -14 18 -18 14 -5 15 -4 5 6 -7 7 -13 17 -13 21 0 16 22 8 41 -14z
m69 -592 c0 -2 -8 -10 -17 -17 -16 -13 -17 -12 -4 4 13 16 21 21 21 13z
m-1333 -108 c-3 -8 -6 -5 -6 6 -1 11 2 17 5 13 3 -3 4 -12 1 -19z m1254 -41
c-10 -9 -11 -8 -5 6 3 10 9 15 12 12 3 -3 0 -11 -7 -18z m-139 -61 c7 -13 7
-16 -1 -12 -6 4 -18 22 -27 39 -14 30 -14 31 1 12 9 -11 21 -28 27 -39z m-58
18 c3 -8 2 -12 -4 -9 -6 3 -10 10 -10 16 0 14 7 11 14 -7z m183 -21 c-3 -10
-5 -4 -5 12 0 17 2 24 5 18 2 -7 2 -21 0 -30z m-157 -23 c6 -11 8 -20 6 -20
-3 0 -10 9 -16 20 -6 11 -8 20 -6 20 3 0 10 -9 16 -20z m71 -43 c-10 -9 -11
-8 -5 6 3 10 9 15 12 12 3 -3 0 -11 -7 -18z m-1152 -174 c-16 -71 -13 -140 7
-170 7 -12 14 -29 14 -37 0 -9 13 -22 29 -30 36 -19 66 -62 47 -69 -7 -3 -31
16 -52 41 -52 61 -52 62 -70 129 -15 59 -11 104 18 176 17 44 21 24 7 -40z
m1971 -44 c0 -5 -4 -9 -10 -9 -5 0 -10 7 -10 16 0 8 5 12 10 9 6 -3 10 -10 10
-16z m-807 -217 c-3 -12 -10 -22 -15 -22 -5 0 -7 -4 -3 -9 9 -16 -51 -51 -89
-51 -20 0 -36 4 -36 10 0 5 15 8 34 6 27 -4 38 1 59 22 13 15 30 38 37 50 14
28 21 25 13 -6z m-700 -329 c9 -8 -42 -63 -58 -63 -21 0 -48 -38 -42 -60 3
-13 -1 -24 -13 -30 -25 -13 -30 -13 -30 5 0 27 -26 16 -53 -25 -19 -27 -23
-70 -7 -70 18 0 10 -16 -29 -57 -21 -23 -48 -62 -60 -87 -34 -68 -55 -56 -32
19 56 182 106 261 211 331 61 41 97 53 113 37z m47 -54 c0 -6 9 -8 20 -4 15 5
20 2 21 -12 1 -17 2 -17 6 1 4 15 7 16 14 5 7 -11 9 -11 9 3 0 14 4 15 32 5
50 -18 68 -43 89 -118 23 -82 24 -99 5 -99 -8 0 -18 -5 -22 -11 -8 -13 16 -31
32 -25 14 5 19 -27 19 -118 l0 -68 -39 -16 c-28 -11 -41 -12 -44 -4 -2 7 -15
9 -33 5 -29 -6 -30 -5 -22 23 14 49 9 162 -7 179 -8 8 -20 11 -26 7 -14 -9
-26 -162 -13 -162 5 0 9 -17 9 -37 l-1 -38 -38 44 c-35 41 -38 42 -43 23 -8
-27 -37 -40 -49 -21 -7 11 -9 11 -9 -2 0 -9 -7 -19 -15 -23 -8 -3 -15 -1 -15
5 0 6 -7 9 -15 5 -8 -3 -15 -1 -15 4 0 6 -11 10 -24 10 -13 0 -29 6 -35 14
-14 16 -97 14 -114 -3 -6 -6 -18 -11 -26 -11 -11 0 -9 5 7 20 12 11 29 35 38
53 24 44 94 137 106 137 5 0 22 10 39 22 30 23 52 60 63 108 12 54 96 141 96
99z m-870 -175 c-5 -43 -12 -95 -14 -114 -2 -19 -3 10 -1 65 3 91 11 142 21
132 2 -2 0 -39 -6 -83z m666 11 c-6 -16 -46 -21 -46 -6 0 6 10 17 22 26 24 16
35 7 24 -20z m874 5 c0 -16 -4 -30 -10 -30 -11 0 -14 43 -3 53 11 12 13 8 13
-23z m-19 -70 c4 0 10 -33 14 -72 3 -40 9 -81 12 -92 3 -10 1 -16 -4 -13 -5 3
-15 32 -22 64 -21 91 -32 123 -43 123 -6 0 -5 7 3 16 12 15 14 14 23 -5 5 -12
12 -21 17 -21z m57 -20 l21 -60 -23 0 c-20 0 -25 7 -34 52 -9 48 -5 66 15 68
0 0 10 -27 21 -60z m-372 3 c63 -119 60 -101 24 -173 -19 -39 -70 -13 -70 37
0 12 -9 37 -20 55 -25 41 -26 93 -2 107 31 18 48 12 68 -26z m442 -291 c9 -3
12 18 12 80 0 57 3 78 10 68 5 -8 9 -64 8 -125 0 -60 -3 -100 -5 -88 -2 13
-17 32 -33 43 -27 19 -33 35 -65 180 -3 14 9 -15 27 -64 18 -49 39 -91 46 -94z
m-68 20 c0 -17 -44 -45 -54 -34 -7 7 37 60 47 55 4 -2 7 -12 7 -21z m390 -148
c-45 -213 -45 -212 -24 -323 l19 -101 235 2 c263 3 291 -2 309 -54 6 -17 11
-38 10 -47 0 -9 -5 -1 -10 16 -19 65 -34 68 -316 67 l-253 -2 0 43 c0 23 -7
64 -15 91 -21 68 -18 123 10 244 14 58 25 117 25 132 0 15 5 39 12 55 l12 28
3 -26 c2 -14 -5 -71 -17 -125z m-2670 76 l25 -20 -35 -30 c-24 -21 -45 -30
-69 -30 l-34 0 19 23 c11 12 28 34 37 50 21 32 24 33 57 7z m-609 -127 c-12
-20 -14 -14 -5 12 4 9 9 14 11 11 3 -2 0 -13 -6 -23z m60 -43 c-4 -3 -20 -22
-35 -43 -16 -21 -30 -36 -32 -34 -2 2 10 30 28 62 26 48 33 55 38 39 4 -10 4
-21 1 -24z m28 -117 c1 -59 -6 -71 -60 -98 -84 -43 -84 -35 -5 92 55 87 64 88
65 6z m711 -36 c0 -8 -3 -17 -7 -20 -9 -9 -34 13 -27 24 8 14 34 11 34 -4z
m150 -8 c100 -11 114 -19 39 -20 -59 -1 -58 -2 51 -19 41 -7 78 -14 81 -16 4
-2 -2 -30 -13 -61 -25 -78 -35 -255 -18 -320 27 -99 113 -234 184 -288 43 -33
136 -58 207 -56 31 1 83 -5 115 -14 32 -8 82 -15 112 -15 33 0 51 -4 47 -10
-3 -5 -21 -10 -39 -10 -18 0 -59 -14 -91 -31 -31 -17 -59 -28 -62 -25 -3 3
-31 -7 -62 -21 -31 -14 -68 -27 -82 -28 -34 -4 -64 -13 -115 -36 -67 -30 -408
-45 -438 -20 -8 7 -56 15 -107 19 -59 4 -94 11 -97 20 -2 7 6 12 23 12 21 0
26 4 21 17 -4 9 -1 20 6 25 20 12 25 10 31 -12 3 -11 14 -20 24 -20 10 0 24
-5 29 -10 6 -6 46 -13 91 -17 l80 -6 21 31 c12 16 22 40 22 52 0 19 -4 21 -26
16 -23 -6 -25 -4 -19 11 4 10 10 27 13 38 3 11 16 34 29 51 40 53 26 90 -21
53 -14 -11 -26 -16 -26 -10 0 6 -7 11 -15 11 -21 0 -19 10 15 54 35 47 39 71
10 63 -16 -4 -20 0 -20 19 0 13 -4 24 -10 24 -21 0 -11 89 15 130 22 35 25 70
6 70 -22 0 -92 -97 -84 -117 5 -14 -62 -123 -77 -123 -3 0 -10 3 -14 7 -9 10
-64 14 -93 7 -26 -5 -32 -41 -9 -50 8 -3 17 -16 20 -28 4 -16 16 -25 36 -29
41 -9 51 -3 83 48 31 48 47 52 39 9 -3 -19 1 -31 13 -40 17 -12 16 -14 -6 -24
-21 -10 -69 -69 -69 -86 0 -3 7 -4 15 0 9 3 15 0 15 -9 0 -21 -19 -29 -26 -11
-9 23 -40 19 -61 -7 -10 -12 -26 -21 -35 -19 -12 2 -27 -11 -45 -41 -22 -35
-37 -48 -73 -59 -45 -14 -90 -6 -90 17 0 5 29 36 65 70 60 56 82 95 53 95 -7
0 -46 -30 -87 -65 -41 -36 -80 -65 -88 -65 -18 0 -17 56 2 64 14 5 22 56 9 56
-14 0 -84 -46 -84 -56 0 -18 -40 -25 -47 -8 -8 21 -53 42 -86 40 -21 -1 -36 7
-53 27 -13 16 -24 32 -24 36 0 14 50 31 89 31 47 0 238 34 311 56 71 21 159
106 179 174 7 25 18 54 25 65 7 11 18 37 25 58 13 39 20 44 38 26 6 -6 16 -8
21 -5 12 7 52 87 52 104 0 11 -26 17 -56 13 -13 -1 -45 59 -38 71 3 4 -4 8
-15 8 l-21 0 20 20 c13 13 20 33 20 58 0 46 7 55 35 47 11 -4 58 -11 105 -16z
m137 -25 c-3 -3 -12 -4 -19 -1 -8 3 -5 6 6 6 11 1 17 -2 13 -5z m56 -11 c-7
-2 -19 -2 -25 0 -7 3 -2 5 12 5 14 0 19 -2 13 -5z m-395 -58 c2 -2 -22 -5 -53
-7 -46 -2 -53 -1 -38 10 14 10 78 8 91 -3z m10 -42 c-2 -13 -13 -17 -46 -16
-24 0 -46 4 -50 7 -11 12 21 26 61 26 31 0 38 -3 35 -17z m447 -33 c3 -5 4
-14 1 -19 -9 -13 -46 -1 -46 15 0 16 36 19 45 4z m347 -114 c-5 -13 -17 -23
-26 -23 -12 0 -13 4 -6 11 16 16 13 49 -5 42 -23 -8 -18 10 8 27 21 14 23 13
31 -10 5 -15 4 -34 -2 -47z m113 54 c3 -5 1 -19 -5 -30 -9 -17 -8 -20 10 -20
26 0 27 -31 1 -47 -16 -10 -20 -9 -25 10 -15 57 -2 120 19 87z m-1078 -62 c-3
-8 -6 -5 -6 6 -1 11 2 17 5 13 3 -3 4 -12 1 -19z m880 -12 c-7 -13 -15 -22
-20 -19 -5 3 -1 14 9 24 22 25 24 24 11 -5z m-76 -33 c-9 -16 -10 -14 -11 12
0 21 3 26 11 18 8 -8 8 -16 0 -30z m-799 -3 c3 -16 3 -30 2 -30 -9 0 -24 42
-19 50 10 16 12 12 17 -20z m2578 16 c0 -3 -4 -8 -10 -11 -5 -3 -10 -1 -10 4
0 6 5 11 10 11 6 0 10 -2 10 -4z m666 -53 c-12 -111 -18 -133 -31 -133 -11 0
-11 8 1 48 7 26 16 68 19 95 4 26 9 47 12 47 3 0 2 -26 -1 -57z m-2229 -3 c-1
-12 -5 -16 -10 -11 -5 5 -6 14 -3 20 11 16 15 13 13 -9z m-903 -15 c-10 -8
-14 -15 -7 -15 20 0 12 -63 -14 -102 -26 -38 -78 -77 -128 -97 -39 -14 -297
-63 -303 -56 -6 5 11 11 53 19 52 9 148 27 200 37 64 12 131 56 167 111 27 39
28 43 11 46 -31 6 -40 22 -20 37 14 10 15 15 5 21 -9 6 -4 10 17 14 38 8 44 4
19 -15z m856 -1 c0 -2 -7 -4 -15 -4 -8 0 -15 4 -15 10 0 5 7 7 15 4 8 -4 15
-8 15 -10z m-280 -24 c-6 -11 -7 -20 -1 -20 5 0 11 7 15 15 3 8 9 15 14 15 10
0 8 -67 -2 -77 -3 -3 -6 -16 -6 -27 0 -17 -2 -18 -10 -6 -7 11 -10 7 -10 -17
0 -18 -5 -33 -11 -33 -7 0 -9 15 -5 43 l6 42 -23 -47 c-15 -33 -28 -48 -41
-48 -15 0 -17 3 -9 11 8 8 5 25 -13 63 -13 28 -24 58 -24 66 1 20 29 -30 30
-52 0 -28 22 -32 41 -7 9 13 15 27 13 31 -7 10 24 68 37 68 6 0 6 -7 -1 -20z
m2319 -96 c2 -2 -27 -4 -65 -3 -48 0 -63 3 -49 9 18 8 104 3 114 -6z m54 -1
c-7 -2 -21 -2 -30 0 -10 3 -4 5 12 5 17 0 24 -2 18 -5z m-200 -23 c-3 -11 -9
-20 -14 -20 -10 0 -12 24 -2 33 13 13 21 7 16 -13z m57 -85 c19 -19 29 -35 23
-35 -6 0 -23 16 -37 35 -15 19 -25 35 -23 35 1 0 18 -16 37 -35z m57 -87 c-3
-8 -6 -5 -6 6 -1 11 2 17 5 13 3 -3 4 -12 1 -19z m-3248 -205 c0 -6 14 -20 30
-29 17 -10 28 -22 25 -26 -7 -11 -142 115 -168 156 -15 23 -3 16 46 -29 36
-33 66 -65 67 -72z m3214 97 c-3 -12 2 -29 12 -40 14 -16 15 -20 4 -20 -22 0
-37 32 -28 58 10 28 19 29 12 2z m-2761 -52 c-9 -9 -15 -9 -24 0 -10 10 -10
15 2 22 20 12 38 -6 22 -22z m488 -142 c0 -2 -17 -16 -37 -31 l-38 -28 29 31
c26 28 46 40 46 28z m34 -10 c-3 -8 -13 -17 -22 -21 -13 -5 -13 -2 3 15 21 24
26 25 19 6z m-721 -10 c4 -10 1 -13 -9 -9 -7 3 -14 9 -14 14 0 14 17 10 23 -5z
m617 -1 c-7 -8 -17 -15 -22 -15 -6 0 -5 7 2 15 7 8 17 15 22 15 6 0 5 -7 -2
-15z m2356 -50 c4 -21 2 -41 -5 -49 -6 -7 -9 -21 -5 -29 3 -9 -3 -23 -15 -34
-16 -13 -20 -25 -15 -49 3 -19 1 -35 -5 -38 -20 -12 -12 78 10 124 16 32 19
53 15 82 -8 49 10 42 20 -7z m-2804 -9 c12 -17 9 -26 -8 -26 -8 0 -13 4 -10 9
3 5 -11 16 -32 25 l-37 16 40 -6 c22 -4 43 -12 47 -18z m2734 -258 c-9 -12
-16 -17 -16 -10 0 14 23 42 29 37 1 -2 -4 -14 -13 -27z m-1588 -77 c18 -57 14
-62 -9 -11 -16 35 -22 41 -29 30 -5 -8 -10 -10 -10 -4 0 6 3 14 7 17 15 16 31
4 41 -32z m33 -83 c11 -21 11 -22 -4 -9 -10 7 -17 17 -17 22 0 15 9 10 21 -13z
m50 -65 l24 -27 -24 15 c-14 9 -27 21 -29 27 -6 19 3 14 29 -15z"/>
<path d="M3088 5643 c7 -3 16 -2 19 1 4 3 -2 6 -13 5 -11 0 -14 -3 -6 -6z"/>
<path d="M3120 5596 c0 -2 9 -6 20 -9 11 -3 18 -1 14 4 -5 9 -34 13 -34 5z"/>
<path d="M3245 5552 c21 -23 40 -42 42 -42 9 0 -24 38 -51 59 -26 21 -25 18 9
-17z"/>
<path d="M2713 5350 c0 -25 2 -35 4 -22 2 12 2 32 0 45 -2 12 -4 2 -4 -23z"/>
<path d="M2645 5250 c-3 -5 -3 -10 2 -10 4 0 1 -5 -7 -11 -12 -8 -12 -10 -1
-7 8 2 15 12 17 21 3 19 -2 22 -11 7z"/>
<path d="M2591 5134 c0 -11 3 -14 6 -6 3 7 2 16 -1 19 -3 4 -6 -2 -5 -13z"/>
<path d="M2745 5095 c-5 -2 -23 -6 -38 -9 -28 -7 -34 -32 -12 -48 5 -4 1 -15
-10 -27 -22 -26 -14 -37 15 -21 12 7 20 8 17 3 -4 -6 5 -16 18 -23 l24 -13
-24 -18 c-13 -11 -30 -19 -38 -19 -22 0 -25 -8 -28 -75 -4 -78 17 -81 47 -7
16 39 30 58 55 71 23 12 35 27 37 45 3 23 0 26 -26 26 -18 0 -32 6 -36 16 -9
23 2 34 27 30 26 -4 26 -18 0 -27 -11 -4 3 -8 37 -11 71 -7 86 6 65 56 -10 22
-23 37 -38 40 -45 9 -82 14 -92 11z"/>
<path d="M2763 4883 c-15 -5 -18 -53 -3 -53 14 0 33 41 23 50 -4 4 -14 5 -20
3z"/>
<path d="M2485 4800 c-4 -6 -8 -36 -10 -68 l-4 -57 8 52 c5 29 11 60 15 68 6
17 0 20 -9 5z"/>
<path d="M3621 4790 c14 -31 19 -36 19 -24 0 6 -7 19 -16 30 -14 18 -14 18 -3
-6z"/>
<path d="M3660 4760 c11 -21 20 -46 20 -55 0 -8 4 -15 9 -15 12 0 2 38 -22 78
-27 45 -32 40 -7 -8z"/>
<path d="M3682 4623 c0 -46 0 -47 9 -15 6 19 6 39 1 48 -6 11 -9 0 -10 -33z"/>
<path d="M2481 4612 c12 -60 20 -85 26 -79 2 3 25 -34 49 -82 45 -86 64 -114
64 -95 0 5 -15 34 -32 64 -38 64 -98 197 -98 216 0 7 -4 15 -9 18 -5 3 -4 -15
0 -42z"/>
<path d="M2646 4345 c4 -8 8 -15 10 -15 2 0 4 7 4 15 0 8 -4 15 -10 15 -5 0
-7 -7 -4 -15z"/>
<path d="M2630 4333 c1 -11 50 -66 55 -62 2 2 -10 19 -26 37 -16 18 -29 29
-29 25z"/>
<path d="M2802 4308 c-24 -24 -9 -95 18 -86 16 5 22 34 14 71 -6 30 -14 33
-32 15z"/>
<path d="M3586 4287 c3 -10 9 -15 12 -12 3 3 0 11 -7 18 -10 9 -11 8 -5 -6z"/>
<path d="M3600 4175 c1 -26 2 -28 11 -12 8 14 8 22 0 30 -8 8 -11 3 -11 -18z"/>
<path d="M2188 4033 c7 -3 16 -2 19 1 4 3 -2 6 -13 5 -11 0 -14 -3 -6 -6z"/>
<path d="M2163 4013 c-51 -3 -65 -8 -74 -24 -11 -22 -15 -122 -4 -139 3 -5 2
-17 -3 -27 -9 -15 -11 -14 -20 4 -6 11 -9 31 -6 44 4 20 2 20 -7 -4 -9 -22 -7
-36 5 -68 28 -70 38 -131 46 -284 l7 -150 0 205 c0 119 5 225 12 252 10 44 88
173 115 190 6 4 7 7 1 6 -5 -1 -38 -3 -72 -5z m32 -22 c-6 -5 -28 -6 -50 -1
l-40 8 50 1 c29 1 45 -3 40 -8z m-101 -236 c7 -34 -7 -15 -19 25 -5 16 -4 22
3 15 5 -5 12 -23 16 -40z"/>
<path d="M2728 4003 c7 -3 16 -2 19 1 4 3 -2 6 -13 5 -11 0 -14 -3 -6 -6z"/>
<path d="M2234 3975 c11 -8 25 -15 30 -15 6 0 2 7 -8 15 -11 8 -25 15 -30 15
-6 0 -2 -7 8 -15z"/>
<path d="M2817 3936 c-19 -20 -21 -32 -8 -41 11 -6 34 31 29 47 -2 6 -11 4
-21 -6z"/>
<path d="M4629 3596 c-61 -46 -85 -88 -93 -158 -9 -67 4 -120 44 -189 17 -27
30 -56 30 -64 0 -23 22 -29 36 -10 18 24 43 12 50 -25 8 -36 31 -39 40 -5 4
15 16 28 30 31 29 8 47 -3 41 -26 -2 -10 -1 -23 3 -30 14 -23 30 1 30 47 0 30
7 53 20 70 11 14 21 40 21 57 1 17 7 -6 13 -51 7 -45 17 -87 23 -95 18 -22 43
-136 43 -201 1 -57 2 -60 15 -43 11 14 15 46 15 112 0 81 3 95 25 128 18 26
25 50 25 82 0 26 4 43 9 39 20 -12 70 -113 77 -153 8 -48 34 -59 34 -14 0 34
23 71 34 54 15 -24 35 -10 50 34 12 36 13 51 4 68 -18 34 -60 90 -81 107 -32
26 -15 63 47 103 49 32 53 36 48 67 -5 41 -57 99 -88 99 -13 0 -41 -21 -73
-55 -29 -30 -55 -55 -58 -55 -3 0 -3 14 1 30 3 17 1 41 -4 55 -9 23 -13 24
-62 18 -29 -3 -59 -11 -65 -17 -8 -7 -13 -53 -15 -133 -3 -100 -5 -119 -16
-110 -22 18 -104 19 -124 0 -23 -20 -50 -10 -46 18 5 32 33 47 59 31 18 -11
24 -11 39 3 11 10 26 14 42 10 24 -6 26 -4 32 55 6 55 5 66 -16 96 -28 41 -35
44 -123 51 -68 5 -71 4 -116 -31z"/>
<path d="M5222 3443 c-51 -33 -58 -50 -32 -75 22 -21 49 -18 75 8 15 16 21 94
7 94 -4 0 -27 -12 -50 -27z"/>
<path d="M4737 3393 c-4 -3 -7 -11 -7 -17 0 -6 5 -5 12 2 6 6 9 14 7 17 -3 3
-9 2 -12 -2z"/>
<path d="M2089 3308 c-1 -24 -3 -58 -5 -75 -1 -18 2 -33 7 -33 5 0 9 34 9 75
0 79 -9 105 -11 33z"/>
<path d="M4312 3263 c-12 -22 -37 -52 -56 -67 -32 -24 -36 -32 -36 -72 l0 -45
31 22 c17 12 40 37 51 56 11 18 24 33 29 33 5 0 19 -19 31 -42 l22 -43 9 31
c7 24 5 39 -7 60 -8 16 -24 47 -35 68 l-19 39 -20 -40z"/>
<path d="M3946 3268 c-10 -38 -7 -65 9 -78 11 -9 14 -22 10 -39 -7 -34 11 -57
52 -64 30 -6 31 -5 23 21 -15 49 -22 62 -35 62 -30 0 -47 32 -41 77 6 45 -7
60 -18 21z"/>
<path d="M2209 3223 c-18 -47 -23 -93 -10 -93 12 0 34 44 46 93 10 37 -22 37
-36 0z"/>
<path d="M4545 3211 c-3 -11 -19 -30 -36 -41 -38 -28 -42 -80 -5 -80 13 0 30
10 38 22 13 20 17 21 32 9 9 -7 16 -22 16 -33 0 -15 4 -18 18 -13 9 4 25 9 34
12 25 7 149 -16 175 -33 33 -21 41 -17 45 19 l3 32 28 -47 c15 -26 27 -55 27
-65 0 -10 5 -25 10 -33 8 -12 10 -9 10 14 0 43 -27 139 -55 193 l-24 48 -1
-43 c0 -49 -14 -82 -35 -82 -22 0 -47 31 -42 51 8 29 -9 23 -33 -12 -30 -41
-61 -36 -73 11 -7 29 -10 32 -18 17 -12 -20 -44 -23 -56 -4 -4 6 -12 25 -18
41 -12 36 -31 44 -40 17z"/>
<path d="M5037 3142 c-15 -31 -28 -68 -27 -81 l0 -25 30 29 c23 22 33 26 42
17 33 -33 38 11 8 76 -10 23 -20 42 -22 42 -2 -1 -16 -27 -31 -58z"/>
<path d="M5252 3145 c-10 -23 -18 -26 -42 -23 -28 4 -30 2 -30 -26 1 -17 10
-42 21 -56 l21 -25 18 23 c19 22 36 99 28 123 -2 6 -9 -1 -16 -16z"/>
<path d="M2087 3153 c-4 -3 -6 -29 -6 -57 l1 -51 8 55 c9 57 8 65 -3 53z"/>
<path d="M4130 3118 c0 -21 5 -38 10 -38 13 0 13 40 0 60 -7 11 -10 5 -10 -22z"/>
<path d="M3931 3124 c0 -11 3 -14 6 -6 3 7 2 16 -1 19 -3 4 -6 -2 -5 -13z"/>
<path d="M5585 3060 c-27 -10 -56 -28 -64 -39 l-14 -22 -26 31 c-21 25 -36 31
-82 36 -49 6 -58 4 -67 -12 -14 -28 8 -103 45 -150 29 -38 31 -44 42 -189 13
-177 20 -227 32 -219 5 3 9 27 9 53 0 59 11 72 25 30 13 -38 35 -50 35 -19 0
11 9 38 20 60 15 29 20 59 20 119 0 72 3 86 38 154 21 40 48 86 60 101 29 38
37 67 21 77 -19 12 -36 10 -94 -11z"/>
<path d="M3154 2986 c2 -46 8 -92 14 -102 6 -11 13 -36 17 -57 12 -65 44 -41
64 48 4 17 11 28 16 25 6 -3 9 -63 7 -148 l-3 -143 32 -30 c27 -25 31 -34 26
-64 -6 -39 2 -105 13 -105 8 0 22 66 25 115 3 81 6 95 14 95 6 0 11 -18 13
-40 4 -50 22 -57 26 -10 2 19 9 41 15 49 8 9 12 58 12 137 0 102 3 126 17 140
24 24 45 11 58 -35 18 -70 45 -48 41 33 -4 80 6 50 18 -60 12 -99 27 -154 65
-224 16 -29 20 -32 25 -17 5 15 9 13 24 -13 20 -32 37 -32 37 1 0 23 24 21 27
-2 8 -60 15 -89 23 -89 6 0 10 18 10 40 0 35 3 39 23 37 18 -2 23 3 25 33 2
20 15 48 32 67 16 18 32 50 36 70 3 21 10 54 14 73 8 35 8 34 11 -15 2 -27 2
-71 0 -97 -1 -30 3 -56 14 -71 10 -16 16 -52 18 -108 2 -66 5 -84 17 -84 12 0
14 12 12 55 -3 68 22 143 47 138 12 -3 17 -17 19 -66 2 -46 7 -62 17 -62 11 0
15 13 16 48 1 79 7 86 85 97 67 10 69 11 81 45 7 19 12 28 12 19 1 -8 19 -25
41 -38 67 -37 70 -44 70 -137 0 -46 4 -84 9 -84 12 0 22 27 15 44 -3 8 2 28
10 45 9 16 16 39 16 49 0 21 25 36 41 26 5 -3 9 -30 9 -60 0 -63 21 -72 31
-13 5 35 30 80 62 112 10 10 20 31 24 48 l6 31 15 -33 c8 -19 25 -63 38 -99
l23 -65 0 47 c1 45 13 69 26 49 3 -6 12 -8 20 -4 12 4 15 -8 15 -70 0 -42 5
-79 10 -82 6 -4 10 7 10 27 0 49 32 139 58 168 93 100 118 155 101 228 -16 71
-36 100 -88 127 -61 31 -173 50 -202 35 -19 -10 -20 -19 -16 -123 2 -62 0
-121 -4 -132 -7 -19 -8 -18 -8 3 -2 40 -20 61 -81 92 -66 33 -79 60 -30 60 17
0 38 -9 50 -22 18 -19 22 -20 30 -8 14 21 23 77 17 95 -16 39 -190 62 -244 32
-66 -37 -90 -132 -44 -180 13 -15 44 -31 75 -38 69 -16 86 -29 86 -61 0 -35
-24 -37 -45 -4 -18 28 -62 46 -110 46 -30 0 -33 -3 -39 -42 -5 -31 -9 -39 -16
-28 -6 9 -23 13 -50 12 -50 -3 -76 4 -83 23 -5 10 3 13 33 10 38 -3 40 -2 46
31 10 53 1 63 -58 66 -41 2 -54 7 -56 21 -3 14 4 17 36 17 23 0 45 -6 52 -15
16 -20 36 -19 44 1 4 9 9 14 13 11 16 -17 33 19 33 69 l0 54 -52 2 c-29 1 -78
2 -108 3 -30 1 -69 5 -86 9 -44 11 -61 -10 -68 -86 -11 -113 -13 -124 -15 -68
-1 52 -28 131 -48 143 -14 9 -85 -18 -99 -37 -8 -11 -10 -45 -6 -105 6 -112
-1 -143 -31 -139 -27 4 -35 54 -14 93 11 23 11 37 -3 103 l-16 77 -60 0 -59 0
-12 -45 -11 -45 -1 47 c-1 26 -5 49 -10 52 -5 4 -100 8 -210 10 l-201 4 4 -82z
m1616 -126 c0 -11 -7 -20 -15 -20 -15 0 -21 21 -8 33 12 13 23 7 23 -13z"/>
<path d="M5046 3042 c-2 -4 -21 -59 -41 -122 -20 -63 -48 -140 -61 -171 -28
-66 -29 -82 -8 -114 8 -13 17 -50 20 -82 13 -151 28 -166 31 -30 l2 92 39 35
c22 19 50 54 63 78 27 50 49 51 61 5 5 -18 20 -49 33 -69 21 -31 25 -49 25
-108 0 -48 5 -79 15 -92 17 -23 16 -26 21 61 3 63 6 73 32 95 65 56 61 97 -26
239 -29 46 -55 100 -58 120 -11 60 -17 65 -83 67 -33 2 -63 0 -65 -4z m76
-174 c-9 -9 -12 -7 -12 12 0 19 3 21 12 12 9 -9 9 -15 0 -24z"/>
<path d="M2113 2953 c-10 -10 -14 -15 -8 -11 6 4 22 12 36 17 15 6 18 10 8 10
-9 1 -25 -7 -36 -16z"/>
<path d="M5310 2927 c0 -44 19 -91 54 -132 l25 -30 1 44 c0 33 -7 53 -27 79
-16 20 -33 45 -40 56 -11 19 -12 18 -13 -17z"/>
<path d="M4226 2888 c-3 -7 -7 -32 -9 -55 -5 -39 -3 -42 13 -33 10 5 20 16 24
25 3 8 12 15 21 15 20 0 19 10 -4 38 -21 24 -40 29 -45 10z"/>
<path d="M4951 2854 c0 -11 3 -14 6 -6 3 7 2 16 -1 19 -3 4 -6 -2 -5 -13z"/>
<path d="M3747 2853 c-11 -10 -8 -63 3 -63 6 0 10 16 10 35 0 36 -2 40 -13 28z"/>
<path d="M4941 2814 c0 -11 3 -14 6 -6 3 7 2 16 -1 19 -3 4 -6 -2 -5 -13z"/>
<path d="M4889 2720 c-13 -18 -35 -44 -49 -59 -34 -37 -61 -123 -50 -159 7
-22 8 -23 9 -6 1 22 86 134 102 134 5 0 8 -17 7 -37 0 -21 7 -56 16 -78 l17
-40 -4 55 c-2 30 -12 72 -22 94 -16 32 -17 45 -7 80 6 22 9 42 7 44 -1 2 -13
-11 -26 -28z"/>
<path d="M5101 2702 c-11 -22 -36 -52 -56 -68 -33 -27 -36 -33 -33 -73 l3 -44
33 28 c18 15 39 40 48 56 19 38 29 37 50 -6 22 -47 31 -51 39 -16 5 22 -2 45
-29 95 l-35 66 -20 -38z"/>
<path d="M5302 2612 c-27 -23 -32 -34 -32 -70 0 -40 1 -42 20 -32 32 17 52 55
48 94 l-3 35 -33 -27z"/>
<path d="M2066 2599 c-10 -15 -16 -44 -16 -79 l0 -55 25 70 c25 71 20 105 -9
64z"/>
<path d="M5403 2565 c0 -22 2 -30 4 -17 2 12 2 30 0 40 -3 9 -5 -1 -4 -23z"/>
<path d="M5190 2432 c0 -66 39 -114 65 -79 16 22 7 87 -11 80 -8 -3 -24 3 -34
12 -19 18 -20 17 -20 -13z"/>
<path d="M4945 2378 c9 -57 26 -75 48 -53 12 11 15 25 10 48 -7 38 -2 33 -36
41 l-29 7 7 -43z"/>
<path d="M3942 2380 c0 -14 2 -19 5 -12 2 6 2 18 0 25 -3 6 -5 1 -5 -13z"/>
<path d="M3801 2231 c-11 -20 -5 -31 16 -31 7 0 13 11 13 25 0 29 -15 33 -29
6z"/>
<path d="M2155 2220 c-3 -5 1 -10 9 -10 9 0 16 5 16 10 0 6 -4 10 -9 10 -6 0
-13 -4 -16 -10z"/>
<path d="M3760 1828 c0 -31 14 -106 26 -137 3 -10 8 -11 15 -4 7 7 5 34 -5 86
-9 42 -16 79 -16 82 0 3 -4 5 -10 5 -5 0 -10 -15 -10 -32z"/>
<path d="M1965 1840 c-3 -6 1 -7 9 -4 18 7 21 14 7 14 -6 0 -13 -4 -16 -10z"/>
<path d="M2970 2754 c-43 -39 -48 -55 -24 -74 13 -11 20 -9 44 16 29 30 50 94
31 94 -6 0 -29 -16 -51 -36z"/>
<path d="M2753 2644 c-9 -14 -17 -33 -18 -42 -1 -10 -7 -30 -14 -45 -14 -35
-14 -44 0 -52 12 -8 59 32 59 51 0 7 -5 14 -11 16 -8 3 -7 14 5 35 30 58 13
88 -21 37z"/>
<path d="M2791 2534 c0 -11 3 -14 6 -6 3 7 2 16 -1 19 -3 4 -6 -2 -5 -13z"/>
<path d="M2720 2450 c-12 -7 -12 -12 -2 -22 9 -9 17 -10 30 -2 9 6 16 15 15
20 -3 13 -26 15 -43 4z"/>
<path d="M1520 1888 c0 -17 3 -19 9 -9 5 7 15 17 22 22 10 6 8 9 -8 9 -17 0
-23 -6 -23 -22z"/>
<path d="M1623 1683 c-14 -3 -26 -16 -33 -38 -13 -39 -7 -55 18 -55 18 0 62
60 62 85 0 15 -6 16 -47 8z"/>
<path d="M1965 1070 c-30 -33 2 -69 33 -38 16 16 15 58 -1 58 -8 0 -22 -9 -32
-20z"/>
<path d="M1807 1052 c-20 -12 -27 -24 -25 -41 2 -14 8 -26 15 -28 17 -6 53 37
53 64 0 27 -6 28 -43 5z"/>
<path d="M2006 1024 c-21 -21 -20 -34 3 -34 22 0 45 25 36 40 -9 14 -21 13
-39 -6z"/>
<path d="M1987 1451 c-4 -17 -3 -21 5 -13 5 5 8 16 6 23 -3 8 -7 3 -11 -10z"/>
<path d="M1732 760 c-4 -3 -13 -17 -21 -31 -11 -23 -10 -48 4 -170 10 -79 20
-170 22 -201 5 -54 7 -57 42 -71 20 -8 37 -14 38 -13 1 0 6 80 12 176 6 96 14
207 18 247 l6 72 -58 -2 c-31 -1 -60 -4 -63 -7z"/>
</g>
</svg>
